<svg id="Filled" height="512" viewBox="0 0 512 512" width="512" xmlns="http://www.w3.org/2000/svg"><path d="m208 472h-64l-15.5-232.54a.09.09 0 0 0 -.01-.05l-.49-7.41h72z" fill="#eb423f"/><path d="m352 232-.35 5.29c0 .02-.01.04-.01.06l-15.64 234.65h-64l8-240z" fill="#eb423f"/><path d="m280 232-8 240h-64l-8-240z" fill="#dadcde"/><path d="m326.94 186.89a56.008 56.008 0 0 0 -99.99-44.16 32.007 32.007 0 0 0 -58.95 17.27 31.639 31.639 0 0 0 1.56 9.88 56.029 56.029 0 0 0 -41.56 54.12v8h224v-8a40.006 40.006 0 0 0 -25.06-37.11z" fill="#f2c837"/><path d="m488 392v96h-88l-32-32-32 32h-88v-96z" fill="#e9eef2"/><path d="m280 424v32h40l32-32z" fill="#2d85cc"/><path d="m456 424v32h-40l-32-32z" fill="#eb423f"/><g fill="#f5dd67"><path d="m320 40a15.973 15.973 0 0 0 -8.15 2.22 16.23 16.23 0 0 0 .15-2.22 16 16 0 1 0 -28.56 9.92 20 20 0 1 0 28.48 19.89 16 16 0 1 0 8.08-29.81z"/><path d="m88 408a15.973 15.973 0 0 0 -8.15 2.22 16.23 16.23 0 0 0 .15-2.22 16 16 0 1 0 -28.56 9.92 20 20 0 1 0 28.48 19.89 16 16 0 1 0 8.08-29.81z"/><path d="m76.56 113.92a16 16 0 1 0 -28.56-9.92 16.23 16.23 0 0 0 .15 2.22 16.006 16.006 0 1 0 -.07 27.59 20 20 0 1 0 28.48-19.89z"/><path d="m460.56 193.92a16 16 0 1 0 -28.56-9.92 16.23 16.23 0 0 0 .15 2.22 16.006 16.006 0 1 0 -.07 27.59 20 20 0 1 0 28.48-19.89z"/></g><path d="m146.344 50.343a8 8 0 0 0 0 11.314l22.627 22.627a8 8 0 0 0 11.314-11.314l-22.628-22.627a8 8 0 0 0 -11.313 0z"/><path d="m384.971 90.343-22.627 22.627a8 8 0 1 0 11.313 11.314l22.628-22.627a8 8 0 1 0 -11.314-11.314z"/><path d="m80 240a8 8 0 0 0 0-16h-32a8 8 0 0 0 0 16z"/><path d="m488 384h-138.119l9.726-145.894c.01-.095.018-.192.025-.288l.35-5.29h-.008c.011-.175.026-.35.026-.528v-8a47.771 47.771 0 0 0 -24.3-41.754c.2-2.067.3-4.153.3-6.246a63.99 63.99 0 0 0 -108.981-45.513 40.014 40.014 0 0 0 -67.019 29.513 40.439 40.439 0 0 0 .256 4.549 64.093 64.093 0 0 0 -40.256 59.451v8c0 .178.016.352.027.528h-.009l.49 7.41c.007.108.016.216.028.324l15.482 232.27a8 8 0 0 0 7.982 7.468h96v8a8 8 0 0 0 8 8h88a8 8 0 0 0 5.657-2.343l26.343-26.344 26.344 26.344a8 8 0 0 0 5.656 2.343h88a8 8 0 0 0 8-8v-96a8 8 0 0 0 -8-8zm-205.059 0 4.8-144h55.708l-9.6 144zm-111.322-206.39a8 8 0 0 0 5.543-10.223 23.661 23.661 0 0 1 -1.162-7.387 24.006 24.006 0 0 1 44.222-12.941 8 8 0 0 0 13.16.429 48.017 48.017 0 0 1 85.712 37.841 8 8 0 0 0 4.856 8.981 31.871 31.871 0 0 1 20.05 29.69h-208a48.043 48.043 0 0 1 35.619-46.39zm-35.065 62.39h55.709l7.466 224h-48.245zm103.446 152v72h-24.262l-7.466-224h63.457l-4.8 144h-18.929a8 8 0 0 0 -8 8zm240 88h-76.686l-29.657-29.657a8 8 0 0 0 -11.313 0l-29.657 29.657h-76.687v-80h224z"/><path d="m280 464h40a8 8 0 0 0 5.657-2.343l32-32a8 8 0 0 0 -5.657-13.657h-72a8 8 0 0 0 -8 8v32a8 8 0 0 0 8 8zm8-32h44.687l-16 16h-28.687z"/><path d="m410.344 461.657a8 8 0 0 0 5.656 2.343h40a8 8 0 0 0 8-8v-32a8 8 0 0 0 -8-8h-72a8 8 0 0 0 -5.656 13.657zm37.656-29.657v16h-28.686l-16-16z"/><path d="m264 68a28.018 28.018 0 0 0 53.4 11.856 23.549 23.549 0 0 0 2.6.144 24 24 0 0 0 0-48q-.679 0-1.357.039a24 24 0 0 0 -45.486 15.291 28.1 28.1 0 0 0 -9.157 20.67zm22.891-10.838a8 8 0 0 0 2.845-12.2 7.914 7.914 0 0 1 -1.736-4.962 8 8 0 0 1 16 0 8.3 8.3 0 0 1 -.1 1.141 8 8 0 0 0 12.02 8 7.862 7.862 0 0 1 4.08-1.141 8 8 0 0 1 0 16 7.871 7.871 0 0 1 -4.035-1.108 8 8 0 0 0 -12.024 6.188 11.994 11.994 0 1 1 -17.05-11.918z"/><path d="m424 224a23.549 23.549 0 0 0 2.6-.144 28 28 0 1 0 44.239-32.526 24 24 0 0 0 -45.486-15.291q-.672-.039-1.353-.039a24 24 0 0 0 0 48zm0-32a7.862 7.862 0 0 1 4.079 1.136 8 8 0 0 0 12.02-8 8.3 8.3 0 0 1 -.099-1.136 8 8 0 0 1 16 0 7.914 7.914 0 0 1 -1.736 4.958 8 8 0 0 0 2.845 12.2 11.99 11.99 0 1 1 -17.05 11.918 8 8 0 0 0 -12.024-6.188 7.871 7.871 0 0 1 -4.035 1.112 8 8 0 0 1 0-16z"/><path d="m32 436a28.018 28.018 0 0 0 53.4 11.856 23.549 23.549 0 0 0 2.6.144 24 24 0 0 0 0-48q-.68 0-1.357.039a24 24 0 0 0 -45.486 15.291 28.1 28.1 0 0 0 -9.157 20.67zm22.891-10.838a8 8 0 0 0 2.845-12.2 7.914 7.914 0 0 1 -1.736-4.962 8 8 0 0 1 16 0 8.3 8.3 0 0 1 -.1 1.141 8 8 0 0 0 12.02 8 7.862 7.862 0 0 1 4.08-1.141 8 8 0 0 1 0 16 7.871 7.871 0 0 1 -4.035-1.108 8 8 0 0 0 -12.024 6.188 11.994 11.994 0 1 1 -17.05-11.918z"/><path d="m40 144a23.549 23.549 0 0 0 2.6-.144 28 28 0 1 0 44.243-32.526 24 24 0 0 0 -45.486-15.291q-.677-.039-1.357-.039a24 24 0 0 0 0 48zm0-32a7.862 7.862 0 0 1 4.079 1.136 8 8 0 0 0 12.02-7.995 8.3 8.3 0 0 1 -.099-1.141 8 8 0 0 1 16 0 7.914 7.914 0 0 1 -1.736 4.958 8 8 0 0 0 2.845 12.2 11.99 11.99 0 1 1 -17.05 11.918 8 8 0 0 0 -12.024-6.188 7.871 7.871 0 0 1 -4.035 1.112 8 8 0 0 1 0-16z"/></svg>