<svg height="512" viewBox="0 0 60 60" width="512" xmlns="http://www.w3.org/2000/svg"><g id="Page-1" fill="none" fill-rule="evenodd"><g id="052---Ranking" fill-rule="nonzero"><g id="Icons" transform="translate(1 1)"><path id="Shape" d="m54 25c.0044135 9.1878547-5.0342463 17.6368268-13.12 22h-.88v-11l-.37-2.42c-.3470063-2.1448275-2.0260098-3.8278573-4.17-4.18l-2.46-.4c-.9111118-1.3516913-1.239145-3.0134857-.91-4.61v-.01c2.3484003-1.0069193 4.1387134-2.9908786 4.9-5.43.1581099.0314719.3187982.0482103.48.05 1.4193718 0 2.57-1.1506282 2.57-2.57s-1.1506282-2.57-2.57-2.57c0 0 2.53-6.86-1.69-9.43-3.85-2.35-13.34 1.02-16.89-2.3 7.7331997-3.41370876 16.6674871-2.69007773 23.7505045 1.92366793 7.0830175 4.61374565 11.3561476 12.49318027 11.3594955 20.94633207z" fill="#02a9f4"/><path id="Shape" d="m29 0c-.506 0-1.007.019-1.5.048 10.6910506.6363629 19.7877526 8.01502739 22.6161469 18.344776 2.8283944 10.3297487-1.2405381 21.313303-10.1161469 27.307224v1.3h.88c10.0756113-5.4382382 15.1691789-17.0260267 12.3633653-28.1264677-2.8058136-11.10044087-12.7938076-18.87612407-24.2433653-18.8735323z" fill="#0377bc"/><path id="Shape" d="m25 29-2.49.41c-2.1016449.3515519-3.7484481 1.9983551-4.1 4.1l-.41 2.49v7h-6.34c-5.87477664-5.6545919-8.62152284-13.819634-7.35890947-21.8752667 1.26261338-8.0556326 6.37579327-14.98873574 13.69890947-18.5747333.02 2.1.38 5.82 2.59 7.77v3.54c-1.4193718 0-2.57 1.1506282-2.57 2.57s1.1506282 2.57 2.57 2.57c.1579243-.0012651.3153441-.0180119.47-.05.7641966 2.4164579 2.5310703 4.3873417 4.85 5.41.334448 1.6061.0063183 3.2792012-.91 4.64z" fill="#02a9f4"/><path id="Shape" d="m18 43v15h-17c-.55228475 0-1-.4477153-1-1v-12c.0032948-1.1032019.89679813-1.9967052 2-2z" fill="#ff9801"/><path id="Rectangle-path" d="m15 43h3v15h-3z" fill="#f57c00"/><path id="Shape" d="m58 49v8c0 .5522847-.4477153 1-1 1h-17v-11h16c1.1032019.0032948 1.9967052.8967981 2 2z" fill="#ff9801"/><path id="Shape" d="m56 47h-3c1.1032019.0032948 1.9967052.8967981 2 2v8c0 .5522847-.4477153 1-1 1h3c.5522847 0 1-.4477153 1-1v-8c-.0032948-1.1032019-.8967981-1.9967052-2-2z" fill="#f57c00"/><path id="Rectangle-path" d="m18 36h22v22h-22z" fill="#ffdc00"/><path id="Rectangle-path" d="m37 36h3v22h-3z" fill="#fec108"/><path id="Shape" d="m40 16.43c.0058577.6764668-.2575354 1.3274958-.7321212 1.809585-.4745858.4820891-1.1214033.7556614-1.7978788.760415-.1612018-.0017897-.3218901-.0185281-.48-.05-.7612866 2.4391214-2.5515997 4.4230807-4.9 5.43v.01c-.9703116.4014289-2.0099295.608673-3.06.61-1.0730238.0042771-2.1353144-.2136287-3.12-.64-2.3189297-1.0226583-4.0858034-2.9935421-4.85-5.41-.1546559.0319881-.3120757.0487349-.47.05-1.4193718 0-2.57-1.1506282-2.57-2.57s1.1506282-2.57 2.57-2.57v-3.54c-2.21-1.95-2.57-5.67-2.59-7.77-.01-.94.05-1.55.05-1.55.2078023.42531605.4926091.80844898.84 1.13 3.55 3.32 13.04-.05 16.89 2.3 4.22 2.57 1.69 9.43 1.69 9.43.6764755.0047536 1.323293.2783259 1.7978788.760415.4745858.4820892.7379789 1.1331182.7321212 1.809585z" fill="#ffe0b2"/><path id="Shape" d="m37.47 13.86s2.53-6.86-1.69-9.43c-1.534-.936-3.965-.963-6.557-.868 1.2379145.00158889 2.4574998.29919925 3.557.868 4.22 2.57 1.69 9.43 1.69 9.43.9668674.0112133 1.845268.5652008 2.2719781 1.4328855.4267101.8676848.3292091 1.9016013-.2521857 2.6742191-.5813948.7726179-1.5478738 1.1526285-2.4997924.9828954-.7612866 2.4391214-2.5515997 4.4230807-4.9 5.43v.01c-.504951.2062899-1.0292101.3617251-1.565.464 1.5342001.297312 3.1219975.1359236 4.565-.464v-.01c2.3484003-1.0069193 4.1387134-2.9908786 4.9-5.43.9519186.1697331 1.9183976-.2102775 2.4997924-.9828954.5813948-.7726178.6788958-1.8065343.2521857-2.6742191-.4267101-.8676847-1.3051107-1.4216722-2.2719781-1.4328855z" fill="#dfc49c"/><path id="Shape" d="m33 29s0 3-4 3-4-3-4-3c.9163183-1.3607988 1.244448-3.0339.91-4.64.9846856.4263713 2.0469762.6442771 3.12.64 1.0500705-.001327 2.0896884-.2085711 3.06-.61-.329145 1.5965143-.0011118 3.2583087.91 4.61z" fill="#ffe0b2"/><path id="Shape" d="m40 36h-22l.41-2.49c.3515519-2.1016449 1.9983551-3.7484481 4.1-4.1l2.49-.41s0 3 4 3 4-3 4-3l2.46.4c2.1439902.3521427 3.8229937 2.0351725 4.17 4.18z" fill="#9d27b0"/><path id="Shape" d="m39.63 33.58c-.3470063-2.1448275-2.0260098-3.8278573-4.17-4.18l-2.46-.4c-.0074212.1740998-.0325508.3469915-.075.516 1.9307939.5014834 3.3837147 2.0951865 3.705 4.064l.37 2.42h3z" fill="#6a1b9a"/><path id="Shape" d="m32 50h-1v-8c-.0001355-.7374384-.4060631-1.4149703-1.056234-1.7629549-.6501708-.3479847-1.4390817-.3099547-2.052766.0989549l-3 2c-.8950793.5999232-1.1539833 1.8011109-.5855116 2.7164878.5684717.9153768 1.7599419 1.2158463 2.6945116.6795122v4.268h-1c-1.1045695 0-2 .8954305-2 2s.8954305 2 2 2h6c1.1045695 0 2-.8954305 2-2s-.8954305-2-2-2z" fill="#9d27b0"/><path id="Shape" d="m38.08 11.34c-2.21-4.47-7.08-3.01-9.08-1.54-3.78 2.78-6.74 1.98-8.41.52-2.21-1.95-2.57-5.67-2.59-7.77-.01-.94.05-1.55.05-1.55.2078023.42531605.4926091.80844898.84 1.13 3.55 3.32 13.04-.05 16.89 2.3 2.55 1.56 2.64 4.68 2.3 6.91z" fill="#a0522d"/><path id="Shape" d="m35.78 4.43c-1.534-.936-3.965-.963-6.557-.868 1.2379145.00158889 2.4574998.29919925 3.557.868 1.435389.92875901 2.3303248 2.49676107 2.4 4.205 1.2945165.4694184 2.3417521 1.4462364 2.9 2.705.34-2.23.25-5.35-2.3-6.91z" fill="#783e22"/></g><g id="Icons_copy" fill="#000"><path id="Shape" d="m57 47h-11.666c10.6108386-7.7496214 13.772065-22.1978349 7.3670026-33.6704851-6.4050625-11.47265029-20.3630296-16.36339442-32.5280026-11.3975149-.0848836-.11918316-.1607607-.24453077-.227-.375-.1980737-.39951311-.6367341-.61960345-1.0754122-.53956963-.4386781.08003381-.7713562.44084959-.8155878.88456963-.007.064-.041.457-.054 1.048-7.055163 3.66484804-12.04345372 10.3588527-13.5380826 18.167343-1.49462889 7.8084903.66901982 15.8714529 5.8720826 21.882657h-7.335c-1.65685425 0-3 1.3431458-3 3v12c0 1.1045695.8954305 2 2 2h56c1.1045695 0 2-.8954305 2-2v-8c0-1.6568542-1.3431458-3-3-3zm-31.795-15.856c.458 1.336 1.779 2.856 4.795 2.856s4.337-1.52 4.8-2.856l1.5.247c1.7210047.2718501 3.0711203 1.6211582 3.344 3.342l.2 1.267h-19.664l.22-1.321c.2803665-1.6805113 1.5944385-2.9989984 3.274-3.285zm-1.615-19.8c-.4520887-.1539878-.8727887-.3880487-1.242-.691-.0585585-.0661375-.1258421-.1240014-.2-.172-1.548-1.465-2.003-4.073-2.117-5.993 2.311 1.412 5.827 1.263 9.028 1.122 2.795-.122 5.689-.248 7.2.674 3.463 2.109 1.294 8.171 1.272 8.232-.1123044.3065414-.0679056.6486027.1189358.9163157.1868413.2677129.4925986.4273678.8190642.4276843.5860936.0126074 1.1159934.3517102 1.3729692.8786145.2569757.5269043.1979291 1.1532413-.1529896 1.6228376-.3509187.4695964-.9348557.7036946-1.5129796.6065479-.4946756-.0941924-.9822226.1941372-1.138.673-.6655212 2.1628188-2.2487273 3.9233996-4.329 4.814-.038893.0156986-.0766503.034076-.113.055-1.7067402.6770677-3.6120093.6515443-5.3-.071-2.0547601-.9075008-3.6185418-2.6567788-4.291-4.8-.1343325-.4105189-.5170618-.6883909-.949-.689-.0671557.0002-.1341345.0068978-.2.02-.0894943.0187026-.1805809.0287489-.272.03-.8670871 0-1.57-.7029129-1.57-1.57s.7029129-1.57 1.57-1.57c.5522847 0 1-.4477153 1-1v-1.76c.118.048.238.093.36.134.5175149.1588025 1.0674354-.1230329 1.2407301-.6358768.1732947-.512844-.0929629-1.0704735-.6007301-1.2581232zm5.41-7.733h-.028c-2.2449608.23057991-4.5118745.12067304-6.724-.326 2.1778356-.74437614 4.4522461-1.16847015 6.752-1.259zm3.97 26.643c-.11.54-.618 1.746-2.97 1.746s-2.858-1.175-2.97-1.747c.6513014-1.0460469.9915468-2.2558083.981-3.488 1.3111402.3112474 2.6766219.3139859 3.989.008-.0146165 1.2290115.3219009 2.4366579.97 3.481zm14.011-5.254c-.0655984-3.4101779-.6009707-6.7950364-1.591-10.059 1.6476149-.4987691 3.2494717-1.1377721 4.788-1.91 2.3125089 3.5786703 3.6236582 7.7117085 3.797 11.969zm2.033-13.619c-1.3778107.6700924-2.8074508 1.2279029-4.275 1.668-.315-.841-.653-1.674-1.036-2.479-.2374825-.4987131-.8342869-.71048238-1.333-.4729999-.4987131.2374824-.7104824.8342868-.473 1.3329999.4902913 1.0307351.9200216 2.0892006 1.287 3.17 1.126539 3.3546673 1.7335524 6.8618554 1.8 10.4h-5.984c-.5522847 0-1 .4477153-1 1s.4477153 1 1 1h5.977c-.0447381 1.9734591-.2480597 3.9401276-.608 5.881-.0922021.537875.2638512 1.0503487.8000975 1.1515942.5362463.1012454 1.0546423-.2461286 1.1649025-.7805942.3826635-2.0632383.5976989-4.1540649.643-6.252h6.989c-.1744428 4.2565859-1.4810114 8.3896231-3.785 11.973-1.5658535-.7944822-3.1992943-1.4480593-4.881-1.953-.3449876-.1161382-.7258343-.03564-.9943191.2101657-.2684849.2458057-.3821946.6180881-.2968747.9719596.0853198.3538716.356191.63343.7071938.7298747 1.4801601.4443575 2.9210643 1.0102837 4.308 1.692-1.9162399 2.4894337-4.3027346 4.5782961-7.024 6.148v-9.772c-.0059474-.0507258-.0159799-.1008887-.03-.15h.018l-.375-2.42c-.4036657-2.5752842-2.419938-4.5976126-4.994-5.009l-2.01-.331c-.5239128-.9229302-.7298203-1.9925246-.586-3.044 2.1147196-1.0581696 3.7685741-2.8543218 4.649-5.049 1.6695026-.1119012 3.0383552-1.3662196 3.2953424-3.0196157s-.6665672-3.2640231-2.2233424-3.8773843c.579-2.228 1.353-7.213-2.444-9.526-1.6-.974-3.839-1.094-6.3-1.034v-1.515c7.0937682.29759057 13.690822 3.72392759 18.014 9.356zm-42.979 13.619c.16311678-4.2606267 1.46305165-8.4000474 3.765-11.989 1.5390391.7835035 3.1455314 1.4267698 4.8 1.922-.9759329 3.2695833-1.5073699 6.6556447-1.58 10.067zm4.934 15.628c1.3888476-.6850164 2.8321306-1.2536331 4.315-1.7.4912498-.1877445.7531369-.7239086.5992172-1.2267834-.1539198-.5028749-.6710433-.8005997-1.1832172-.6812166-1.6860621.5064655-3.323558 1.1624009-4.893 1.96-2.31536872-3.5804207-3.6219402-7.7191638-3.782-11.98h7c.0448521 2.0350973.2484704 4.0635901.609 6.067.0868693.4747251.5003924.8196783.983.82.0607412.0002009.1213585-.0054925.181-.017.5419287-.1011543.899771-.6218149.8-1.164-.3394615-1.8842157-.5320408-3.7919545-.576-5.706h5.978c.5522847 0 1-.4477153 1-1s-.4477153-1-1-1h-5.98c.0739066-3.5382431.675881-7.0456039 1.786-10.406.226-.662.475-1.315.74-1.94.2105196-.5076394-.028053-1.0900329-.5342101-1.3040918-.5061571-.2140588-1.0902022.0204416-1.3077899.5250918-.16.379-.3.782-.449 1.176-1.4775126-.4391666-2.9158297-1.0007792-4.3-1.679 1.9392482-2.51936941 4.3610663-4.62707183 7.124-6.2.193 2.12.8 4.8 2.51 6.572v2.259c-1.6527854.4991895-2.7126623 2.1082537-2.5187398 3.8238539.1939224 1.7156002 1.5862285 3.0474825 3.3087398 3.1651461.8804678 2.1728471 2.5132137 3.9564445 4.6 5.025.1478028 1.0593271-.0593084 2.1377819-.589 3.067l-2.044.334c-2.523508.4263622-4.4987877 2.4064606-4.919 4.931l-.414 2.485h.018c-.0152098.0543106-.0255836.1098606-.031.166v6h-4.923c-.7536849-.7438099-1.4578578-1.5361715-2.108-2.372zm-8.969 5.372c0-.5522847.44771525-1 1-1h15v13h-16zm18-2v-6h20v20h-20zm38 14h-16v-9h15c.5522847 0 1 .4477153 1 1z"/><path id="Shape" d="m27.553 21.9c.7940753.3604624 1.6559403.5472908 2.528.548.8206536.0047316 1.6309921-.1829546 2.366-.548.4942949-.2468713.6948713-.8477051.448-1.342s-.8477051-.6948713-1.342-.448c-.9910114.4367614-2.1199886.4367614-3.111 0-.4921738-.2307377-1.0785248-.0260682-1.3202048.4608258-.2416799.486894-.0501661 1.0776728.4312048 1.3301742z"/><path id="Shape" d="m33 50v-7c.0013962-1.1070429-.6069917-2.1248844-1.5827041-2.6478864-.9757125-.5230019-2.1601557-.4661547-3.0812959.1478864l-3 2c-1.1036206.7320539-1.5966611 2.1011544-1.2131551 3.3687524.383506 1.2675979 1.5528156 2.133762 2.8771551 2.1312476v2c-1.6568542 0-3 1.3431458-3 3s1.3431458 3 3 3h6c1.6568542 0 3-1.3431458 3-3s-1.3431458-3-3-3zm0 4h-6c-.5522847 0-1-.4477153-1-1s.4477153-1 1-1h1c.5522847 0 1-.4477153 1-1v-4.268c-.0000091-.3572611-.1906116-.6873798-.500011-.8660064-.3093994-.1786265-.6905919-.1786241-.999989.0000064-.4567861.2643183-1.0403435.1281695-1.333-.311-.1472282-.2206502-.2007572-.4907558-.1488077-.7508787.0519496-.2601229.2051208-.488948.4258077-.6361213l3-2c.3068912-.2052879.7019305-.2247676 1.0275296-.0506683.3255991.1740992.5287724.5134458.5284704.8826683v8c0 .5522847.4477153 1 1 1h1c.5522847 0 1 .4477153 1 1s-.4477153 1-1 1z"/><path id="Shape" d="m10 48c-.55228475 0-1 .4477153-1 1v5c0 .5522847.44771525 1 1 1 .5522847 0 1-.4477153 1-1v-5c0-.5522847-.4477153-1-1-1z"/><path id="Shape" d="m50 51c-.5522847 0-1 .4477153-1 1v3c0 .5522847.4477153 1 1 1s1-.4477153 1-1v-3c0-.5522847-.4477153-1-1-1z"/></g></g></g></svg>